<?xml version="1.0" encoding="iso-8859-1"?>
<!-- Generator: Adobe Illustrator 19.0.0, SVG Export Plug-In . SVG Version: 6.00 Build 0)  -->
<svg version="1.1" id="Capa_1" xmlns="http://www.w3.org/2000/svg" xmlns:xlink="http://www.w3.org/1999/xlink" x="0px" y="0px"
	 viewBox="0 0 512 512" style="enable-background:new 0 0 512 512;" xml:space="preserve">
<g>
	<g>
		<path d="M467,362h-45v90h45c24.853,0,45-20.147,45-45C512,382.147,491.853,362,467,362z"/>
	</g>
</g>
<g>
	<g>
		<path d="M45,362c-24.853,0-45,20.147-45,45c0,24.853,20.147,45,45,45h45v-90H45z"/>
	</g>
</g>
<g>
	<g>
		<path d="M421,272H91c-16.569,0-30,13.431-30,30c0,16.567,13.431,30,30,30h330c16.569,0,30-13.433,30-30
			C451,285.431,437.569,272,421,272z"/>
	</g>
</g>
<g>
	<g>
		<path d="M422,482v30h45c8.284,0,15-6.716,15-15v-15H422z"/>
	</g>
</g>
<g>
	<g>
		<path d="M30,482v15c0,8.284,6.716,15,15,15h45v-30H30z"/>
	</g>
</g>
<g>
	<g>
		<rect x="180" y="452" width="151" height="60"/>
	</g>
</g>
<g>
	<g>
		<path d="M120,362v150h30v-75c0-8.291,6.709-15,15-15h181c8.291,0,15,6.709,15,15v75h31V362H120z"/>
	</g>
</g>
<g>
	<g>
		<path d="M271,123.258V87.237C288.422,81.024,301,64.53,301,45c0-24.814-20.186-45-45-45c-24.814,0-45,20.186-45,45
			c0,19.53,12.578,36.024,30,42.237v36.021C172.372,129.546,115.717,177.54,97.396,242h317.208
			C396.283,177.54,339.628,129.546,271,123.258z M196,212c-8.284,0-15-6.716-15-15c0-8.286,6.716-15,15-15s15,6.714,15,15
			C211,205.284,204.284,212,196,212z M316,212c-8.284,0-15-6.716-15-15c0-8.286,6.716-15,15-15s15,6.714,15,15
			C331,205.284,324.284,212,316,212z"/>
	</g>
</g>
<g>
</g>
<g>
</g>
<g>
</g>
<g>
</g>
<g>
</g>
<g>
</g>
<g>
</g>
<g>
</g>
<g>
</g>
<g>
</g>
<g>
</g>
<g>
</g>
<g>
</g>
<g>
</g>
<g>
</g>
</svg>
